# xmcd
#
# Track frame offsets:
#	150
#	17535
#	38072
#	59404
#	80702
#	118534
#	156904
#	177071
#	200258
#	222791
#	246228
#
# Disc length: 3765 seconds
#
# Revision: 0
# Processed by: cddbd v1.5.2PL0 Copyright (c) Steve Scherf et al.
# Submitted via: audiograbber 1.83.01
#
DISCID=8d0eb30b
DTITLE=Ultravox - Lament [remastered] [CD-R]
DYEAR=1984
DGENRE=New Wave
TTITLE0=White China
TTITLE1=One Small Day
TTITLE2=Dancing With Tears In My Eyes
TTITLE3=Lament
TTITLE4=White China [special mix]
TTITLE5=One Small Day [extended mix]
TTITLE6=Man Of Two Worlds
TTITLE7=Heart Of The Country
TTITLE8=When The Time Comes
TTITLE9=A Friend I Call Desire
TTITLE10=Lament [extended mix]
EXTD=
EXTT0=
EXTT1=
EXTT2=
EXTT3=
EXTT4=
EXTT5=
EXTT6=
EXTT7=
EXTT8=
EXTT9=
EXTT10=
PLAYORDER=
